<svg xmlns="http://www.w3.org/2000/svg" width="9.689" height="10.903" viewBox="0 0 9.689 10.903">
  <path id="filter-svgrepo-com" d="M7.028,4.21a.606.606,0,1,0,.606.606A.606.606,0,0,0,7.028,4.21Zm-1.714,0a1.817,1.817,0,0,1,3.427,0h4.342a.606.606,0,0,1,0,1.211H8.741a1.817,1.817,0,0,1-3.427,0H4.606a.606.606,0,1,1,0-1.211Zm5.347,3.633a.606.606,0,1,0,.606.606A.606.606,0,0,0,10.661,7.843Zm-1.714,0a1.817,1.817,0,0,1,3.427,0h.708a.606.606,0,0,1,0,1.211h-.708a1.817,1.817,0,0,1-3.427,0H4.606a.606.606,0,0,1,0-1.211Zm-1.92,3.633a.606.606,0,1,0,.606.606A.606.606,0,0,0,7.028,11.477Zm-1.714,0a1.817,1.817,0,0,1,3.427,0h4.342a.606.606,0,0,1,0,1.211H8.741a1.817,1.817,0,0,1-3.427,0H4.606a.606.606,0,1,1,0-1.211Z" transform="translate(-4 -2.998)" fill="#fff"/>
</svg>
