<svg xmlns="http://www.w3.org/2000/svg" width="10.717" height="10.718" viewBox="0 0 10.717 10.718">
  <path id="Path_5544" data-name="Path 5544" d="M139.446,129.121a.664.664,0,0,0-.942,0l-4.221,4.221-4.221-4.221a.666.666,0,1,0-.942.942l4.221,4.221-4.221,4.221a.668.668,0,0,0,.468,1.139.65.65,0,0,0,.468-.2l4.221-4.221,4.221,4.221a.67.67,0,0,0,.468.2.642.642,0,0,0,.468-.2.664.664,0,0,0,0-.942l-4.211-4.221,4.221-4.221A.664.664,0,0,0,139.446,129.121Z" transform="translate(-128.925 -128.925)"/>
</svg>
