<svg xmlns="http://www.w3.org/2000/svg" width="13.866" height="13.866" viewBox="0 0 13.866 13.866">
  <path id="grid-svgrepo-com" d="M13.266,2.067h-4.8V7.4H13.8V2.6A.533.533,0,0,0,13.266,2.067Zm.533,6.4H8.466V13.8h4.8a.533.533,0,0,0,.533-.533ZM7.4,7.4V2.067H2.6a.533.533,0,0,0-.533.533V7.4ZM2.067,8.466v4.8A.533.533,0,0,0,2.6,13.8H7.4V8.466ZM2.6,1A1.6,1.6,0,0,0,1,2.6V13.266a1.6,1.6,0,0,0,1.6,1.6H13.266a1.6,1.6,0,0,0,1.6-1.6V2.6a1.6,1.6,0,0,0-1.6-1.6Z" transform="translate(-1 -1)" fill="#fff" fill-rule="evenodd"/>
</svg>
