<svg id="Group_187" data-name="Group 187" xmlns="http://www.w3.org/2000/svg" width="17.61" height="18.007" viewBox="0 0 17.61 18.007">
  <g id="cart-svgrepo-com" transform="translate(0 0)">
    <g id="Group_157" data-name="Group 157" transform="translate(0 0)">
      <g id="Group_156" data-name="Group 156" transform="translate(0 0)">
        <path id="Path_5359" data-name="Path 5359" d="M17.246,10.8h3.62a.748.748,0,0,1,.75.75V21.869H33.361a.75.75,0,0,1,0,1.5H20.87a.748.748,0,0,1-.75-.75V12.3H17.25a.752.752,0,0,1,0-1.5Z" transform="translate(-16.5 -10.8)"/>
        <path id="Path_5360" data-name="Path 5360" d="M62.539,363.4A2.525,2.525,0,1,1,60,365.925,2.535,2.535,0,0,1,62.539,363.4Zm0,3.55a1.025,1.025,0,1,0-1.04-1.025A1.034,1.034,0,0,0,62.539,366.95Z" transform="translate(-49.067 -350.442)"/>
        <path id="Path_5361" data-name="Path 5361" d="M239.539,363.4A2.525,2.525,0,1,1,237,365.925,2.535,2.535,0,0,1,239.539,363.4Zm0,3.55a1.025,1.025,0,1,0-1.04-1.025A1.034,1.034,0,0,0,239.539,366.95Z" transform="translate(-232.572 -350.442)"/>
      </g>
    </g>
  </g>
  <path id="document-verified-svgrepo-com" d="M6.25,11.069l2.124,2.124,4.249-4.249" transform="translate(2.084 -5.95)" fill="none" stroke="#000" stroke-width="1"/>
</svg>
