<svg id="Group_221" data-name="Group 221" xmlns="http://www.w3.org/2000/svg" width="13.504" height="13.504" viewBox="0 0 13.504 13.504">
  <path id="Path_5407" data-name="Path 5407" d="M12.54,0H.965A.966.966,0,0,0,0,.965V12.54a.966.966,0,0,0,.965.965H12.54a.966.966,0,0,0,.965-.965V.965A.966.966,0,0,0,12.54,0ZM7.216.881h1.5v1.6h-1.5Zm-4.069,0H6.336V2.92a.44.44,0,0,0,.44.44H9.154a.44.44,0,0,0,.44-.44V.881h.774V4.393H3.147ZM3.141,12.624V9.062h7.221v3.562Zm9.482-.084h0a.084.084,0,0,1-.084.084h-1.3v-4a.44.44,0,0,0-.44-.44H2.7a.44.44,0,0,0-.44.44v4H.965a.084.084,0,0,1-.084-.084V.965A.084.084,0,0,1,.965.881h1.3V4.833a.44.44,0,0,0,.44.44h8.1a.44.44,0,0,0,.44-.44V.881h1.29a.084.084,0,0,1,.084.084V12.54Z" fill="#fff"/>
</svg>
