<svg id="home-svgrepo-com" xmlns="http://www.w3.org/2000/svg" width="18.622" height="16.057" viewBox="0 0 18.622 16.057">
  <path id="Path_5356" data-name="Path 5356" d="M47.572,135.551a.555.555,0,0,0-.555.555v5.636H35.745v-5.636a.555.555,0,1,0-1.111,0V142.3a.555.555,0,0,0,.555.555H47.572a.555.555,0,0,0,.555-.555v-6.191A.555.555,0,0,0,47.572,135.551Z" transform="translate(-32.069 -126.796)"/>
  <path id="Path_5357" data-name="Path 5357" d="M18.459,26.236,9.7,17.481a.555.555,0,0,0-.785,0L.163,26.236a.555.555,0,0,0,.786.785l8.362-8.362,8.363,8.362a.555.555,0,1,0,.785-.785Z" transform="translate(0 -17.319)"/>
</svg>
