<svg xmlns="http://www.w3.org/2000/svg" width="13.999" height="10" viewBox="0 0 13.999 10">
  <path id="overview" d="M.028,5.154a.44.44,0,0,1,0-.309A7.777,7.777,0,0,1,7,0a7.778,7.778,0,0,1,6.972,4.845.445.445,0,0,1,0,.309A7.778,7.778,0,0,1,7,10,7.777,7.777,0,0,1,.028,5.154ZM.966,5A6.927,6.927,0,0,0,7,9.091,6.926,6.926,0,0,0,13.034,5,6.927,6.927,0,0,0,7,.909,6.928,6.928,0,0,0,.966,5ZM4.2,5A2.764,2.764,0,0,1,7,2.273,2.764,2.764,0,0,1,9.8,5,2.764,2.764,0,0,1,7,7.727,2.764,2.764,0,0,1,4.2,5Zm.933,0A1.867,1.867,0,1,0,7,3.182,1.843,1.843,0,0,0,5.133,5Z" transform="translate(0)"/>
</svg>
