<svg xmlns="http://www.w3.org/2000/svg" width="76.44" height="62.227" viewBox="0 0 76.44 62.227">
  <g id="password-error-svgrepo-com" transform="translate(-1.5 -4.5)">
    <path id="Path_5505" data-name="Path 5505" d="M15.121,33.432l8.655-8.655m0,0,8.655-8.655m-8.655,8.655-8.655-8.655m8.655,8.655,8.655,8.655" transform="translate(37.334 31.174)" fill="none" stroke="#6391a0" stroke-linecap="round" stroke-linejoin="round" stroke-width="3"/>
    <path id="Path_5506" data-name="Path 5506" d="M76.44,34.56V14.16A8.16,8.16,0,0,0,68.28,6H11.16A8.16,8.16,0,0,0,3,14.16V38.64a8.16,8.16,0,0,0,8.16,8.16H35.64" fill="none" stroke="#6391a0" stroke-linecap="round" stroke-linejoin="round" stroke-width="3"/>
    <path id="Path_5507" data-name="Path 5507" d="M12,11.044,12.041,11" transform="translate(27.72 15.397)" fill="none" stroke="#6391a0" stroke-linecap="round" stroke-linejoin="round" stroke-width="4"/>
    <path id="Path_5508" data-name="Path 5508" d="M16,11.044,16.041,11" transform="translate(40.04 15.397)" fill="none" stroke="#6391a0" stroke-linecap="round" stroke-linejoin="round" stroke-width="4"/>
    <path id="Path_5509" data-name="Path 5509" d="M8,11.044,8.041,11" transform="translate(15.4 15.397)" fill="none" stroke="#6391a0" stroke-linecap="round" stroke-linejoin="round" stroke-width="4"/>
  </g>
</svg>
