<svg xmlns="http://www.w3.org/2000/svg" width="142.778" height="12.5" viewBox="0 0 142.778 12.5">
  <g id="Group_338" data-name="Group 338" transform="translate(-1116.576 -247)">
    <rect id="Rectangle_1120" data-name="Rectangle 1120" width="2.778" height="12.5" rx="1" transform="translate(1116.576 247)" fill="#2e3675" opacity="0.73"/>
    <rect id="Rectangle_1135" data-name="Rectangle 1135" width="2.778" height="12.5" rx="1" transform="translate(1148.576 247)" fill="#2e3675" opacity="0.73"/>
    <rect id="Rectangle_1143" data-name="Rectangle 1143" width="2.778" height="12.5" rx="1" transform="translate(1180.576 247)" fill="#2e3675" opacity="0.73"/>
    <rect id="Rectangle_1151" data-name="Rectangle 1151" width="2.778" height="12.5" rx="1" transform="translate(1212.576 247)" fill="#2e3675" opacity="0.73"/>
    <rect id="Rectangle_1123" data-name="Rectangle 1123" width="2.778" height="12.5" rx="1" transform="translate(1124.576 247)" fill="#2e3675" opacity="0.73"/>
    <rect id="Rectangle_1133" data-name="Rectangle 1133" width="2.778" height="12.5" rx="1" transform="translate(1156.576 247)" fill="#2e3675" opacity="0.73"/>
    <rect id="Rectangle_1141" data-name="Rectangle 1141" width="2.778" height="12.5" rx="1" transform="translate(1188.576 247)" fill="#2e3675" opacity="0.73"/>
    <rect id="Rectangle_1149" data-name="Rectangle 1149" width="2.778" height="12.5" rx="1" transform="translate(1220.576 247)" fill="#2e3675" opacity="0.73"/>
    <rect id="Rectangle_1125" data-name="Rectangle 1125" width="2.778" height="12.5" rx="1" transform="translate(1132.576 247)" fill="#2e3675" opacity="0.73"/>
    <rect id="Rectangle_1131" data-name="Rectangle 1131" width="2.778" height="12.5" rx="1" transform="translate(1164.576 247)" fill="#2e3675" opacity="0.73"/>
    <rect id="Rectangle_1139" data-name="Rectangle 1139" width="2.778" height="12.5" rx="1" transform="translate(1196.576 247)" fill="#2e3675" opacity="0.73"/>
    <rect id="Rectangle_1147" data-name="Rectangle 1147" width="2.778" height="12.5" rx="1" transform="translate(1228.576 247)" fill="#2e3675" opacity="0.73"/>
    <rect id="Rectangle_1127" data-name="Rectangle 1127" width="2.778" height="12.5" rx="1" transform="translate(1140.576 247)" fill="#2e3675" opacity="0.73"/>
    <rect id="Rectangle_1129" data-name="Rectangle 1129" width="2.778" height="12.5" rx="1" transform="translate(1172.576 247)" fill="#2e3675" opacity="0.73"/>
    <rect id="Rectangle_1137" data-name="Rectangle 1137" width="2.778" height="12.5" rx="1" transform="translate(1204.576 247)" fill="#2e3675" opacity="0.73"/>
    <rect id="Rectangle_1145" data-name="Rectangle 1145" width="2.778" height="12.5" rx="1" transform="translate(1236.576 247)" fill="#2e3675" opacity="0.73"/>
    <rect id="Rectangle_1153" data-name="Rectangle 1153" width="2.778" height="12.5" rx="1" transform="translate(1248.576 247)" fill="#2e3675" opacity="0.73"/>
    <rect id="Rectangle_1121" data-name="Rectangle 1121" width="2.778" height="12.5" rx="1" transform="translate(1120.576 247)" fill="#2e3675" opacity="0.73"/>
    <rect id="Rectangle_1134" data-name="Rectangle 1134" width="2.778" height="12.5" rx="1" transform="translate(1152.576 247)" fill="#2e3675" opacity="0.73"/>
    <rect id="Rectangle_1142" data-name="Rectangle 1142" width="2.778" height="12.5" rx="1" transform="translate(1184.576 247)" fill="#2e3675" opacity="0.73"/>
    <rect id="Rectangle_1150" data-name="Rectangle 1150" width="2.778" height="12.5" rx="1" transform="translate(1216.576 247)" fill="#2e3675" opacity="0.73"/>
    <rect id="Rectangle_1122" data-name="Rectangle 1122" width="2.778" height="12.5" rx="1" transform="translate(1128.576 247)" fill="#2e3675" opacity="0.73"/>
    <rect id="Rectangle_1132" data-name="Rectangle 1132" width="2.778" height="12.5" rx="1" transform="translate(1160.576 247)" fill="#2e3675" opacity="0.73"/>
    <rect id="Rectangle_1140" data-name="Rectangle 1140" width="2.778" height="12.5" rx="1" transform="translate(1192.576 247)" fill="#2e3675" opacity="0.73"/>
    <rect id="Rectangle_1148" data-name="Rectangle 1148" width="2.778" height="12.5" rx="1" transform="translate(1224.576 247)" fill="#2e3675" opacity="0.73"/>
    <rect id="Rectangle_1124" data-name="Rectangle 1124" width="2.778" height="12.5" rx="1" transform="translate(1136.576 247)" fill="#2e3675" opacity="0.73"/>
    <rect id="Rectangle_1130" data-name="Rectangle 1130" width="2.778" height="12.5" rx="1" transform="translate(1168.576 247)" fill="#2e3675" opacity="0.73"/>
    <rect id="Rectangle_1138" data-name="Rectangle 1138" width="2.778" height="12.5" rx="1" transform="translate(1200.576 247)" fill="#2e3675" opacity="0.73"/>
    <rect id="Rectangle_1146" data-name="Rectangle 1146" width="2.778" height="12.5" rx="1" transform="translate(1232.576 247)" fill="#2e3675" opacity="0.73"/>
    <rect id="Rectangle_1154" data-name="Rectangle 1154" width="2.778" height="12.5" rx="1" transform="translate(1244.576 247)" fill="#2e3675" opacity="0.73"/>
    <rect id="Rectangle_1126" data-name="Rectangle 1126" width="2.778" height="12.5" rx="1" transform="translate(1144.576 247)" fill="#2e3675" opacity="0.73"/>
    <rect id="Rectangle_1128" data-name="Rectangle 1128" width="2.778" height="12.5" rx="1" transform="translate(1176.576 247)" fill="#2e3675" opacity="0.73"/>
    <rect id="Rectangle_1136" data-name="Rectangle 1136" width="2.778" height="12.5" rx="1" transform="translate(1208.576 247)" fill="#2e3675" opacity="0.73"/>
    <rect id="Rectangle_1144" data-name="Rectangle 1144" width="2.778" height="12.5" rx="1" transform="translate(1240.576 247)" fill="#2e3675" opacity="0.73"/>
    <rect id="Rectangle_1152" data-name="Rectangle 1152" width="2.778" height="12.5" rx="1" transform="translate(1252.576 247)" fill="#2e3675" opacity="0.73"/>
    <rect id="Rectangle_1155" data-name="Rectangle 1155" width="2.778" height="12.5" rx="1" transform="translate(1256.576 247)" fill="#2e3675" opacity="0.73"/>
  </g>
</svg>
