<svg xmlns="http://www.w3.org/2000/svg" width="24" height="24" viewBox="0 0 24 24">
  <path id="question-circle-o-svgrepo-com" d="M12,0A12,12,0,1,1,0,12,12,12,0,0,1,12,0Zm0,1.674A10.326,10.326,0,1,0,22.326,12,10.326,10.326,0,0,0,12,1.674Zm0,14.689a1.091,1.091,0,1,1-1.091,1.091A1.091,1.091,0,0,1,12,16.364ZM15.216,6.4a3.317,3.317,0,0,1,1.006,2.922,3.967,3.967,0,0,1-1.3,2.311c-.839.728-1.046.907-1.2,1.067l-.072.074-.123.132a3.114,3.114,0,0,0-.645,1.1,5.161,5.161,0,0,0-.22,1.087.818.818,0,0,1-1.625-.19,6.639,6.639,0,0,1,.306-1.451,4.726,4.726,0,0,1,.984-1.655c.2-.22.439-.445.737-.711.138-.123.68-.593.814-.709A2.345,2.345,0,0,0,14.6,9.093a1.7,1.7,0,0,0-.546-1.543,2.482,2.482,0,0,0-1.951-.686,2.894,2.894,0,0,0-1.9.8,2.981,2.981,0,0,0-.9,1.822.818.818,0,0,1-1.614-.272A4.585,4.585,0,0,1,9.12,6.437a4.437,4.437,0,0,1,2.774-1.2A4.109,4.109,0,0,1,15.216,6.4Z" fill="#fb0"/>
</svg>
