<svg xmlns="http://www.w3.org/2000/svg" width="11.666" height="11.666" viewBox="0 0 11.666 11.666">
  <g id="retuens" transform="translate(0 0)">
    <g id="Group_250" data-name="Group 250" transform="translate(0 0)">
      <path id="Path_5441" data-name="Path 5441" d="M11.18,10.694H4.861a3.889,3.889,0,1,1,0-7.777h5.146L8.892,4.031a.486.486,0,0,0,.687.687l1.944-1.944h0c.011-.011.022-.023.032-.035l.013-.017.015-.021.013-.021.012-.02.011-.022.01-.021.008-.022c0-.008.006-.015.008-.023s0-.015.006-.022,0-.016.006-.024,0-.017,0-.026,0-.014,0-.021a.489.489,0,0,0,0-.1c0-.007,0-.014,0-.021s0-.017,0-.026,0-.016-.006-.024,0-.015-.006-.022-.005-.015-.008-.023l-.008-.022-.01-.021L11.609,2.2l-.012-.02-.013-.021-.015-.021-.013-.017c-.01-.012-.021-.024-.032-.035h0L9.579.142A.486.486,0,0,0,8.892.83l1.115,1.115H4.861a4.861,4.861,0,0,0,0,9.722H11.18a.486.486,0,0,0,0-.972Z" transform="translate(0 0)"/>
    </g>
  </g>
</svg>
