<svg id="route-svgrepo-com" xmlns="http://www.w3.org/2000/svg" width="16.323" height="17.138" viewBox="0 0 16.323 17.138">
  <path id="Path_5345" data-name="Path 5345" d="M17.985,33.106H8.67a2.321,2.321,0,0,1,0-4.641h5.822a.592.592,0,1,0,0-1.184H8.67a3.5,3.5,0,0,0,0,7.008h9.315a2.321,2.321,0,0,1,0,4.641H12.113a.592.592,0,1,0,0,1.184h5.872a3.5,3.5,0,0,0,0-7.008Z" transform="translate(-5.166 -25.128)"/>
  <path id="Path_5346" data-name="Path 5346" d="M19.439,130a2.494,2.494,0,0,0-2.491,2.491c0,2.12,1.988,4.132,2.072,4.217a.592.592,0,0,0,.837,0c.085-.085,2.072-2.1,2.072-4.217A2.494,2.494,0,0,0,19.439,130Zm0,5.394a5.206,5.206,0,0,1-1.307-2.9,1.307,1.307,0,1,1,2.614,0A5.207,5.207,0,0,1,19.439,135.395Z" transform="translate(-16.018 -119.743)"/>
  <path id="Path_5347" data-name="Path 5347" d="M138.976,6.881a.59.59,0,0,0,.418-.173c.085-.085,2.073-2.1,2.073-4.217a2.491,2.491,0,0,0-4.983,0c0,2.12,1.988,4.132,2.072,4.217A.589.589,0,0,0,138.976,6.881Zm0-5.7a1.309,1.309,0,0,1,1.308,1.307,5.206,5.206,0,0,1-1.308,2.9,5.206,5.206,0,0,1-1.307-2.9A1.309,1.309,0,0,1,138.976,1.184Z" transform="translate(-126.123)"/>
</svg>
