<svg xmlns="http://www.w3.org/2000/svg" width="19.602" height="14.964" viewBox="0 0 19.602 14.964">
  <path id="stock-svgrepo-com" d="M131.406,221.476H112.2a.2.2,0,0,0-.2.2v1.372a.2.2,0,0,0,.2.2h19.21a.2.2,0,0,0,.2-.2v-1.372A.2.2,0,0,0,131.406,221.476Zm-18.09-3.068.973.968a.2.2,0,0,0,.277,0l5.751-5.731,2.391,2.384a.787.787,0,0,0,1.108,0l6.474-6.449a.2.2,0,0,0,0-.277l-.973-.97a.2.2,0,0,0-.277,0l-5.775,5.758-2.394-2.384a.787.787,0,0,0-1.108,0l-6.447,6.425a.195.195,0,0,0,0,.277Z" transform="translate(-112 -208.276)"/>
</svg>
