<svg xmlns="http://www.w3.org/2000/svg" width="15.095" height="15.095" viewBox="0 0 15.095 15.095">
  <path id="system-svgrepo-com_1_" data-name="system-svgrepo-com (1)" d="M1,12.533H15.1V1H1ZM3.563,15.1h0Zm1.922,0H10.61V12.533H5.485ZM5.329,4.048l1.36,1.36Zm.8,2.718h0Zm.563,1.359-1.36,1.36Zm1.359.563v0Zm1.359-.563,1.36,1.36Zm2.485-1.359h0ZM10.766,4.048l-1.36,1.36Zm-2.718.8v0Zm0,0A1.922,1.922,0,1,0,9.97,6.766,1.922,1.922,0,0,0,8.048,4.844Z" transform="translate(-0.5 -0.5)" fill="none" stroke="#000" stroke-width="1"/>
</svg>
