<svg xmlns="http://www.w3.org/2000/svg" width="12.501" height="10" viewBox="0 0 12.501 10">
  <path id="trace_transactions" d="M11.376,9.625a.625.625,0,0,1,.073,1.246l-.073,0H4.136l2.058,2.058a.625.625,0,0,1,.052.825l-.052.059a.625.625,0,0,1-.825.052l-.059-.052L2.184,10.692a.625.625,0,0,1,.371-1.063l.071,0Zm-.243-5.494.059.052,3.125,3.125a.625.625,0,0,1-.371,1.063l-.071,0H5.125a.625.625,0,0,1-.073-1.246l.073,0h7.241L10.308,5.067a.625.625,0,0,1-.052-.825l.052-.059A.625.625,0,0,1,11.133,4.131Z" transform="translate(-2 -4)"/>
</svg>
