<svg xmlns="http://www.w3.org/2000/svg" width="13.739" height="10.625" viewBox="0 0 13.739 10.625">
  <g id="trucks" transform="translate(0 -28.812)">
    <path id="Path_5439" data-name="Path 5439" d="M13.7,33.759l-1.065-2.3a.406.406,0,0,0-.368-.235H8.919V29.217a.405.405,0,0,0-.405-.405H.405A.405.405,0,0,0,0,29.217v6.822a.405.405,0,0,0,.405.405H1.2a2.1,2.1,0,0,0-.151.471H.405a.405.405,0,1,0,0,.811h.643a2.116,2.116,0,0,0,4.154,0H8.585a2.116,2.116,0,0,0,4.154,0h.594a.405.405,0,0,0,.405-.405V33.93A.406.406,0,0,0,13.7,33.759ZM8.585,36.915H5.2a2.1,2.1,0,0,0-.151-.471H8.513a.4.4,0,0,0,.277-.11A2.1,2.1,0,0,0,8.585,36.915ZM.811,29.623h7.3v6.011H4.4a2.111,2.111,0,0,0-2.553,0H.811Zm2.315,9A1.306,1.306,0,1,1,4.431,37.32,1.307,1.307,0,0,1,3.125,38.626Zm7.537,0a1.306,1.306,0,1,1,1.306-1.306A1.307,1.307,0,0,1,10.662,38.626Zm2.266-1.711h-.189A2.115,2.115,0,0,0,8.9,36.143a.407.407,0,0,0,.014-.1v-4h3.091l.919,1.985Z"/>
    <path id="Path_5440" data-name="Path 5440" d="M174.139,95.3h-1.7a.405.405,0,0,0-.405.405v1.127a.405.405,0,0,0,.405.405h2.24a.405.405,0,0,0,.353-.6l-.522-1.1A.405.405,0,0,0,174.139,95.3Zm-1.3,1.127v-.316h1.043l.15.316Z" transform="translate(-162.732 -62.897)"/>
  </g>
</svg>
