<svg id="value" xmlns="http://www.w3.org/2000/svg" width="30.232" height="30.233" viewBox="0 0 30.232 30.233">
  <path id="Path_337" data-name="Path 337" d="M56.224,64.985,59.248,67a.5.5,0,0,0,.279.085H62.55A.5.5,0,0,0,62.83,67l3.023-2.016a.5.5,0,0,0,.224-.419V59.023a.5.5,0,0,0-.259-.44l-4.535-2.519a.5.5,0,0,0-.489,0l-4.535,2.519a.5.5,0,0,0-.259.44v5.543a.5.5,0,0,0,.224.419ZM62.4,66.077H59.68L57.008,64.3V59.879l3.786,2.1a.5.5,0,0,0,.489,0l3.786-2.1V64.3Zm-1.359-9,3.5,1.943-3.5,1.943-3.5-1.943Z" transform="translate(-53.481 -53.48)" fill="#fff"/>
  <rect id="Rectangle_243" data-name="Rectangle 243" width="2.217" height="0.739" transform="translate(7.725 15.855)" fill="#fff"/>
  <rect id="Rectangle_244" data-name="Rectangle 244" width="1.478" height="0.739" transform="translate(4.768 15.855)" fill="#fff"/>
  <rect id="Rectangle_245" data-name="Rectangle 245" width="2.957" height="0.739" transform="translate(8.464 18.073)" fill="#fff"/>
  <rect id="Rectangle_246" data-name="Rectangle 246" width="4.435" height="0.739" transform="translate(3.29 18.073)" fill="#fff"/>
  <path id="Path_338" data-name="Path 338" d="M44.721,16.5a.5.5,0,0,0-.5-.5H40.186a.5.5,0,0,0-.5.5v7.558H36.155a.5.5,0,0,0-.5.5v6.047H32.124a.5.5,0,0,0-.5.5v4.535H28.093a.5.5,0,0,0-.5.5v3.361a11.646,11.646,0,0,0-1.263-.635l-1.256-.539v-.676a.5.5,0,0,0-.5-.5H16.5a.5.5,0,0,0-.5.5v6.047a.5.5,0,0,0,.5.5h8.062a.5.5,0,0,0,.351-.143,6.032,6.032,0,0,0,4.63,2.159h5.1a1.511,1.511,0,0,0,1.425-2.016H46.232V43.209H44.721ZM32.628,31.62h3.023V43.209H33.045a1.51,1.51,0,0,0-.356-1.573c-.02-.02-.04-.039-.061-.058ZM28.6,36.659H31.62v4.535H29.811A11.6,11.6,0,0,0,28.6,40.173Zm-4.535,6.55H17.008V38.171h7.054Zm10.581,2.015h-5.1a5.028,5.028,0,0,1-4.192-2.244l-.285-.428V39.439l.86.368a10.548,10.548,0,0,1,3.319,2.247.5.5,0,0,0,.356.148H31.62a.5.5,0,0,1,0,1.008H29.1v1.008h5.543a.5.5,0,1,1,0,1.008ZM36.659,25.07h3.023v18.14H36.659Zm4.031,18.14v-26.2h3.023v26.2Z" transform="translate(-16 -16)" fill="#fff"/>
  <rect id="Rectangle_247" data-name="Rectangle 247" width="2.217" height="0.739" transform="translate(21.029 29.16)" fill="#fff"/>
  <rect id="Rectangle_248" data-name="Rectangle 248" width="1.478" height="0.739" transform="translate(25.464 29.16)" fill="#fff"/>
</svg>
